<svg width="84" height="84" viewBox="0 0 84 84" fill="none" xmlns="http://www.w3.org/2000/svg">
<path d="M21.1666 5.91662C14.8326 9.57355 9.57283 14.8333 5.91582 21.1672C2.25882 27.5012 0.333473 34.6861 0.333282 42C0.33329 65.0125 18.9875 83.6666 42 83.6666C65.0125 83.6666 83.6666 65.0125 83.6666 42C83.6664 34.686 81.741 27.501 78.084 21.167C74.4269 14.833 69.1669 9.57325 62.8328 5.91636C56.4987 2.25947 49.3136 0.334304 41.9997 0.334351C34.6858 0.334397 27.5007 2.25966 21.1666 5.91662ZM34.8875 26.5541C35.6688 25.773 36.7284 25.3342 37.8333 25.3342C38.9381 25.3342 39.9978 25.773 40.7791 26.5541L53.2791 39.0541C54.0603 39.8355 54.4991 40.8951 54.4991 42C54.4991 43.1048 54.0603 44.1644 53.2791 44.9458L40.7791 57.4458C39.9978 58.2269 38.9381 58.6657 37.8333 58.6657C36.7284 58.6657 35.6688 58.2269 34.8875 57.4458L34.5416 57.0541C33.9197 56.2524 33.6117 55.2514 33.6754 54.2388C33.7391 53.2262 34.1701 52.2716 34.8875 51.5541L44.4375 42L34.8875 32.4458C34.1063 31.6644 33.6675 30.6048 33.6675 29.5C33.6675 28.3951 34.1063 27.3355 34.8875 26.5541Z" fill="#C4BEB1"/>
</svg>
