<svg width="84" height="84" viewBox="0 0 84 84" fill="none" xmlns="http://www.w3.org/2000/svg">
<path d="M62.8333 5.91662C69.1672 9.57355 74.427 14.8333 78.0841 21.1672C81.7411 27.5012 83.6664 34.6861 83.6666 42C83.6666 65.0125 65.0124 83.6666 41.9999 83.6666C18.9874 83.6666 0.333252 65.0125 0.333252 42C0.333438 34.686 2.25883 27.501 5.91592 21.167C9.57301 14.833 14.8329 9.57325 21.167 5.91636C27.5011 2.25947 34.6862 0.334304 42.0002 0.334351C49.3141 0.334397 56.4992 2.25966 62.8333 5.91662ZM49.1124 26.5541C48.3311 25.773 47.2714 25.3342 46.1666 25.3342C45.0617 25.3342 44.0021 25.773 43.2208 26.5541L30.7208 39.0541C29.9396 39.8355 29.5008 40.8951 29.5008 42C29.5008 43.1048 29.9396 44.1644 30.7208 44.9458L43.2208 57.4458C44.0021 58.2269 45.0617 58.6657 46.1666 58.6657C47.2714 58.6657 48.3311 58.2269 49.1124 57.4458L49.4583 57.0541C50.0801 56.2524 50.3881 55.2514 50.3245 54.2388C50.2608 53.2262 49.8298 52.2716 49.1124 51.5541L39.5624 42L49.1124 32.4458C49.8936 31.6644 50.3324 30.6048 50.3324 29.5C50.3324 28.3951 49.8936 27.3355 49.1124 26.5541Z" fill="#C4BEB1"/>
</svg>
